<?xml version="1.0" encoding="UTF-8"?>
<svg width="959px" height="320px" viewBox="0 0 959 320" version="1.1" xmlns="http://www.w3.org/2000/svg" xmlns:xlink="http://www.w3.org/1999/xlink" xmlns:sketch="http://www.bohemiancoding.com/sketch/ns">
    <!-- Generator: Sketch 3.4.2 (15855) - http://www.bohemiancoding.com/sketch -->
    <title>lux-banner-blue-yellow</title>
    <desc>Created with Sketch.</desc>
    <defs></defs>
    <g id="Page-1" stroke="none" stroke-width="1" fill="none" fill-rule="evenodd" sketch:type="MSPage">
        <g id="lux-banner-blue-yellow" sketch:type="MSLayerGroup">
            <path d="M558.076172,279.505859 C544.632094,285.430368 523.839659,290.728167 495.698242,295.399414 C469.949416,299.728863 448.815187,301.893555 432.294922,301.893555 C404.381371,301.893555 390.424805,289.645956 390.424805,265.150391 C390.424805,267.087249 391.564116,249.029162 393.842773,210.975586 C396.805028,161.528724 398.286133,106.499978 398.286133,45.8876953 C398.286133,39.3935222 400.536273,33.8678613 405.036621,29.3105469 C409.536969,24.7532324 415.205044,22.4746094 422.041016,22.4746094 C428.876987,22.4746094 434.573545,24.7532324 439.130859,29.3105469 C443.688174,33.8678613 445.966797,39.3935222 445.966797,45.8876953 C445.966797,106.61391 444.428726,162.554106 441.352539,213.709961 C440.327143,222.82459 439.244797,236.781156 438.105469,255.580078 C465.107557,255.124347 499.742627,248.51634 542.011719,235.755859 C544.632175,234.958329 547.13866,234.55957 549.53125,234.55957 C556.70902,234.55957 562.519509,237.179987 566.962891,242.420898 C570.950541,247.092146 572.944336,252.332979 572.944336,258.143555 C572.944336,267.941781 567.988331,275.062478 558.076172,279.505859 L558.076172,279.505859 Z M739.912109,187.220703 C739.912109,194.854205 739.969075,206.361251 740.083008,221.742188 C740.196941,237.123124 740.253906,248.63017 740.253906,256.263672 C740.253906,258.656262 740.453286,262.21661 740.852051,266.944824 C741.250816,271.673038 741.450195,275.233386 741.450195,277.625977 C741.450195,284.006217 739.143089,289.275533 734.528809,293.434082 C729.914528,297.592631 724.246453,299.671875 717.524414,299.671875 C708.067987,299.671875 701.175152,295.399457 696.845703,286.854492 C682.262297,292.209337 667.166419,294.886719 651.557617,294.886719 C635.379151,294.886719 621.764378,291.468784 610.712891,284.632812 C598.294209,276.771445 590.888684,265.321364 588.496094,250.282227 C584.052712,221.799011 581.831055,196.335399 581.831055,173.890625 C581.831055,159.079353 583.540022,142.160577 586.958008,123.133789 C589.236665,110.259376 596.927018,103.822266 610.029297,103.822266 C616.637403,103.822266 622.276995,105.901509 626.948242,110.060059 C631.61949,114.218608 633.955078,119.487924 633.955078,125.868164 C633.955078,130.88121 633.129077,138.742459 631.477051,149.452148 C629.825024,160.161837 628.999023,168.307915 628.999023,173.890625 C628.999023,189.955158 629.540196,203.997173 630.622559,216.01709 C631.704921,228.037007 633.32844,237.9775 635.493164,245.838867 C638.341486,247.092129 641.104316,248.060543 643.781738,248.744141 C646.459161,249.427738 649.051094,249.769531 651.557617,249.769531 C664.204165,249.769531 678.103765,247.946633 693.256836,244.300781 C693.256836,235.527951 693.19987,225.558975 693.085938,214.393555 C692.858072,201.06341 692.744141,191.493193 692.744141,185.682617 C692.744141,162.326381 693.826487,142.160567 695.991211,125.18457 C697.700204,111.62656 705.447522,104.847656 719.233398,104.847656 C725.955437,104.847656 731.70896,106.955383 736.494141,111.170898 C741.279321,115.386414 743.500978,120.684213 743.15918,127.064453 C740.994455,170.472873 739.912109,190.524756 739.912109,187.220703 L739.912109,187.220703 Z M940.546875,147.401367 C934.052702,152.984077 925.678762,160.332637 915.424805,169.447266 L889.277344,193.714844 L941.401367,257.459961 C945.161152,262.131208 947.041016,266.74542 947.041016,271.302734 C947.041016,277.227243 944.648461,282.411111 939.863281,286.854492 C935.078101,291.297874 929.609406,293.519531 923.457031,293.519531 C917.076791,293.519531 911.380233,290.785184 906.367188,285.316406 C896.11323,274.150986 879.194454,254.042137 855.610352,224.989258 C846.38179,234.21782 832.08343,247.661696 812.714844,265.321289 C806.562469,270.448268 801.891292,274.720686 798.701172,278.138672 C793.688126,283.379583 788.048534,286 781.782227,286 C775.629852,286 770.18964,283.778343 765.461426,279.334961 C760.733212,274.891579 758.369141,269.707712 758.369141,263.783203 C758.369141,257.175097 763.040318,249.598676 772.382812,241.053711 C779.902381,234.559538 787.421837,228.122428 794.941406,221.742188 C801.891311,214.792283 812.71477,204.13972 827.412109,189.78418 C821.031869,180.897417 814.594759,172.010787 808.100586,163.124023 C800.239219,152.6422 792.833694,144.496123 785.883789,138.685547 C779.95928,133.786434 776.99707,128.260773 776.99707,122.108398 C776.99707,116.18389 779.247211,110.914574 783.747559,106.300293 C788.247907,101.686012 793.631154,99.3789062 799.897461,99.3789062 C807.986694,99.3789062 819.151947,107.524984 833.393555,123.817383 L860.737305,159.022461 C870.535531,150.819295 880.276644,142.616252 889.960938,134.413086 C902.037821,123.931263 910.696588,114.987667 915.9375,107.582031 C920.836613,100.632127 927.045861,97.1572266 934.56543,97.1572266 C940.717804,97.1572266 946.214982,99.3219185 951.057129,103.651367 C955.899276,107.980816 958.320312,113.107718 958.320312,119.032227 C958.320312,126.437863 952.395893,135.894148 940.546875,147.401367 L940.546875,147.401367 Z" id="Lux" fill="#E5C700" sketch:type="MSShapeGroup"></path>
            <g id="Logo" sketch:type="MSShapeGroup">
                <circle id="Oval-1" fill="#005A8A" cx="160" cy="160" r="160"></circle>
                <path d="M161.862076,164.180316 C168.634734,158.693709 182.701032,167.122403 182.701028,175.153519 C182.701025,183.184634 181.761121,193.807963 165.508892,193.807964 C149.256663,193.807967 133.921438,190.458279 130.082678,175.153519 C126.243919,159.848758 130.466341,141.452607 145.71189,131.260695 C160.957439,121.068784 183.843136,121.006874 199.786482,131.260696 C215.729829,141.514518 220.416509,155.606094 220.41651,175.153525 C220.416512,194.700956 214.203328,211.88735 187.015513,222.222222 C159.827698,232.557097 138.400801,227.298398 119.663203,217.037037 C100.925606,206.775675 97.6187249,183.383427 97.6187256,164.180314 C97.6187268,144.977202 108.201783,122.83201 122.789047,111.858804 C137.376311,100.885599 161.862076,102.730364 161.862076,109.314287 C161.862076,115.898209 140.158989,118.70548 134.949252,124.740741 C129.739514,130.776001 119.663203,142.233904 119.663204,164.180314 C119.663204,186.126723 125.914889,189.219897 130.082679,193.807964 C134.250469,198.396032 160.009813,206.733767 172.802524,203.485063 C185.595236,200.236359 192.716341,191.044096 193.120502,175.153525 C193.524664,159.262953 191.320613,157.136889 180.096157,149.167699 C175.435288,145.858555 167.979454,144.976207 161.862076,149.167699 C151.400688,156.33561 150.526952,167.224745 151.442602,175.153521 C152.358251,183.082297 165.508892,180.150728 165.508892,175.153521 C165.508893,170.156314 155.089418,169.666922 161.862076,164.180316 Z M196.248987,65.9322041 C185.922122,82.4924689 181.949492,94.2457577 181.275033,99.0527347 C180.600574,103.859712 186.464169,116.070026 196.248987,104 C206.033804,91.9299744 214.36535,81.0745725 218.451745,71.851852 C223.098835,61.3636843 221.736325,45.1287457 218.451745,43.8518519 C215.167166,42.5749576 206.575851,49.3719389 196.248987,65.9322041 Z M251.507096,103.102091 C233.14697,110.243321 222.918435,117.347547 219.528395,120.829491 C216.138355,124.311435 212.384518,139.771975 227.651418,135.936615 C233.239231,134.532842 248.064314,127.568814 253.665805,124.407194 C263.713367,118.736102 282.938995,103.917709 283.027747,98.6956616 C283.116498,93.4736145 269.867221,95.9608594 251.507096,103.102091 Z M273.304278,161.19294 C254.363353,156.488912 241.18644,161.479518 236.406314,162.323507 C231.626187,163.167496 226.016561,170.443624 240.519513,176.019695 C255.022465,181.595767 262.653571,180.060004 272.687665,181.09642 C284.098535,182.275042 300.393709,180.622651 300.393709,180.622651 C300.393709,180.622651 292.245202,165.896969 273.304278,161.19294 Z M262.035537,226.798561 C249.476966,211.859726 239.526534,204.449564 235.163247,202.322678 C230.799959,200.195792 217.166145,201.931245 225.621747,214.967003 C234.077348,228.002761 239.597199,231.504933 247.105761,238.241304 C255.644572,245.90197 276.17417,254.737843 276.17417,254.737843 C276.17417,254.737843 274.594108,241.737396 262.035537,226.798561 Z M198.073635,268.635025 C196.694364,249.16751 192.999879,237.323847 190.720058,233.038483 C188.440237,228.75312 176.06783,221.699707 175.24633,237.215935 C174.424829,252.732162 176.47369,259.842989 178.588705,269.70625 C180.993922,280.922846 193.089731,299.548859 193.089731,299.548859 C193.089731,299.548859 199.452906,288.102539 198.073635,268.635025 Z M127.41572,270.962963 C137.742584,254.402698 141.825928,247.111111 141.825928,238.814815 C141.825927,230.518519 137.200538,220.501752 127.41572,232.571778 C117.630902,244.641804 112.511325,250.991198 108.42493,260.213918 C103.777841,270.702086 92.706814,292.740741 100.565872,292.740741 C108.42493,292.740741 117.088855,287.523228 127.41572,270.962963 Z M68.783445,237.530814 C87.0205929,230.214102 92.7902368,226.081014 96.1814589,222.574927 C98.2190733,220.468296 110.731461,213.815896 100.336493,206.263506 C89.9415264,198.711116 67.7297107,211.497491 58.9364942,216.562867 C51.6602179,220.754401 27.8146127,234.329717 33.3568643,238.356398 C38.899116,242.38308 50.5462973,244.847527 68.783445,237.530814 Z M43.7442348,164.97186 C62.6851592,169.675888 78.6341215,167.870465 83.4142477,167.026476 C88.1943738,166.182487 104.423478,163.769308 90.3366674,154.373029 C76.2498581,144.976749 62.3197905,145.181318 52.2856965,144.144902 C40.8748267,142.96628 19.4268524,148.727332 19.4268524,148.727332 C19.4268524,148.727332 24.8033102,160.267832 43.7442348,164.97186 Z M68.7625117,82.9142351 C81.0705994,98.1447906 96.7695624,102.512157 101.084809,104.647802 C105.400056,106.783447 115.423494,99.228031 107.174435,85.9058596 C98.9253756,72.583688 97.1280723,72.4697827 89.741331,65.6253537 C85.3952421,61.5983416 65.128963,48.7699046 60.9380717,51.1702406 C56.7471804,53.5705767 56.4544236,67.68368 68.7625117,82.9142351 Z M135.666614,51.3649755 C137.045885,70.8324898 140.74037,82.6761535 143.020191,86.9615167 C145.300012,91.2468799 158.300411,99.1646502 159.121911,83.6484223 C159.943412,68.1321947 156.332257,60.8358205 154.217242,50.9725599 C151.812026,39.7559636 140.650518,20.4511411 140.650518,20.4511411 C140.650518,20.4511411 134.287343,31.8974611 135.666614,51.3649755 Z" id="Sun" fill="#E5C700"></path>
            </g>
        </g>
    </g>
</svg>