<?xml version="1.0" encoding="UTF-8" standalone="no"?>
<svg width="600px" height="600px" viewBox="0 0 600 600" version="1.1" xmlns="http://www.w3.org/2000/svg" xmlns:xlink="http://www.w3.org/1999/xlink" xmlns:sketch="http://www.bohemiancoding.com/sketch/ns">
    <title>blogimage</title>
    <description>Created with Sketch (http://www.bohemiancoding.com/sketch)</description>
    <defs></defs>
    <g id="Page-1" stroke="none" stroke-width="1" fill="none" fill-rule="evenodd" sketch:type="MSPage">
        <g id="blogimage" sketch:type="MSLayerGroup">
            <rect id="Rectangle-1" stroke="#979797" fill-opacity="0.2" fill="#005A8A" sketch:type="MSShapeGroup" x="0" y="0" width="600" height="600"></rect>
            <path d="M303.990163,308.95782 C318.503002,297.200806 348.645068,315.262293 348.645061,332.471826 C348.645054,349.681359 346.630974,372.445636 311.804769,372.445637 C276.978564,372.445643 244.117367,365.267741 235.891453,332.471826 C227.665541,299.67591 236.713589,260.255586 269.382621,238.415775 C302.051655,216.575966 351.092435,216.443301 385.256748,238.415777 C419.421062,260.388253 429.463949,290.584486 429.46395,332.471839 C429.463953,374.359192 416.149989,411.187178 357.890385,433.333333 C299.630782,455.479494 253.716003,444.210852 213.564007,422.222222 C173.412013,400.233589 166.325839,350.107343 166.325841,308.957816 C166.325843,267.808289 189.003821,220.354308 220.262243,196.840294 C251.520667,173.326284 303.990163,177.279352 303.990163,191.387757 C303.990162,205.496163 257.483548,211.511742 246.319826,224.444444 C235.156102,237.377146 213.564006,261.929795 213.564008,308.957815 C213.564008,355.985836 226.960477,362.614064 235.891455,372.445637 C244.822433,382.277211 300.021027,400.143787 327.433981,393.182278 C354.846934,386.220769 370.106445,366.523064 370.972505,332.471839 C371.838565,298.420615 367.115599,293.864763 343.063193,276.787927 C333.075618,269.696904 317.09883,267.806158 303.990163,276.787927 C281.572903,292.147736 279.700612,315.481596 281.662718,332.471831 C283.624824,349.462066 311.804769,343.180131 311.804769,332.471831 C311.80477,321.76353 289.477323,320.714834 303.990163,308.95782 Z M377.6764,98.4261516 C355.547405,133.912433 347.034626,159.098052 345.589357,169.398717 C344.144087,179.699382 356.708933,205.864342 377.6764,180 C398.643867,154.13566 416.497178,130.874084 425.25374,111.111112 C435.211788,88.6364663 432.292126,53.8473123 425.25374,51.1111111 C418.215355,48.3749092 399.805395,62.9398692 377.6764,98.4261516 Z M496.086634,178.075908 C456.743508,193.378545 434.825218,208.601886 427.560847,216.063194 C420.296476,223.524503 412.252539,256.654233 444.967323,248.435604 C456.941209,245.427518 488.709244,230.504601 500.712439,223.729702 C522.24293,211.577362 563.440704,179.823662 563.630886,168.633561 C563.821066,157.44346 535.429759,162.77327 496.086634,178.075908 Z M542.794881,302.556301 C502.207186,292.47624 473.970942,303.170397 463.727815,304.978944 C453.484687,306.787492 441.46406,322.379194 472.541814,334.327918 C503.619568,346.276643 519.971938,342.985722 541.473568,345.206613 C565.925432,347.732232 600.843662,344.191395 600.843662,344.191395 C600.843662,344.191395 583.382577,312.636361 542.794881,302.556301 Z M518.647579,443.139773 C491.736355,411.127984 470.414001,395.249066 461.0641,390.691453 C451.714198,386.133839 422.498881,389.852669 440.618029,417.786435 C458.737175,445.720202 470.565425,453.224856 486.655203,467.659936 C504.952654,484.07565 548.94465,503.009664 548.94465,503.009664 C548.94465,503.009664 545.558804,475.151562 518.647579,443.139773 Z M381.58636,532.789338 C378.63078,491.073236 370.714027,465.693957 365.828696,456.511036 C360.943364,447.328114 334.431065,432.213658 332.670707,465.462717 C330.910348,498.711776 335.300764,513.949263 339.83294,535.084822 C344.986975,559.120385 370.906566,599.033269 370.906566,599.033269 C370.906566,599.033269 384.541941,574.505441 381.58636,532.789338 Z M230.176542,537.777778 C252.305537,502.291496 261.05556,486.666667 261.05556,468.888889 C261.055559,451.111111 251.144009,429.646612 230.176543,455.510954 C209.209076,481.375295 198.238554,494.981138 189.481992,514.74411 C179.523944,537.218755 155.800316,584.444444 172.641155,584.444444 C189.481994,584.444444 208.047547,573.26406 230.176542,537.777778 Z M104.535954,466.137459 C143.615556,450.45879 155.979079,441.602173 163.245983,434.08913 C167.6123,429.574921 194.424559,415.319777 172.149629,399.136084 C149.874699,382.952391 102.277951,410.351767 83.4353447,421.206143 C67.8433242,430.188002 16.7455987,459.277964 28.6218521,467.906568 C40.4981056,476.535171 65.4563514,481.816128 104.535954,466.137459 Z M50.8805031,310.653985 C91.4681984,320.734046 125.644546,316.865282 135.887674,315.056734 C146.130801,313.248186 180.907452,308.077089 150.72143,287.942205 C120.53541,267.80732 90.6852654,268.245681 69.1836353,266.024789 C44.7317715,263.49917 -1.2281734,275.844283 -1.2281734,275.844283 C-1.2281734,275.844283 10.2928076,300.573925 50.8805031,310.653985 Z M104.491097,134.816218 C130.86557,167.453123 164.506205,176.811764 173.753163,181.388147 C183.000121,185.964529 204.478917,169.774352 186.80236,141.226842 C169.125805,112.679331 165.274441,112.435249 149.445709,97.7686151 C140.132662,89.1393035 96.7049207,61.6497955 87.7244393,66.7933727 C78.743958,71.9369501 78.116622,102.179314 104.491097,134.816218 Z M247.857031,67.2106617 C250.81261,108.926764 258.729363,134.306043 263.614695,143.488964 C268.500026,152.671886 296.358023,169.638536 298.118381,136.389476 C299.87874,103.140417 292.140552,87.5053297 287.608375,66.3697712 C282.45434,42.3342076 258.536824,0.966730943 258.536824,0.966730943 C258.536824,0.966730943 244.90145,25.4945595 247.857031,67.2106617 Z" id="Sun" stroke="#908500" stroke-width="2" fill-opacity="0.4" fill="#E5C700" sketch:type="MSShapeGroup"></path>
        </g>
    </g>
</svg>