<?xml version="1.0" encoding="UTF-8" standalone="no"?>
<svg width="600px" height="600px" viewBox="0 0 600 600" version="1.1" xmlns="http://www.w3.org/2000/svg" xmlns:xlink="http://www.w3.org/1999/xlink" xmlns:sketch="http://www.bohemiancoding.com/sketch/ns">
    <title>lux-sky</title>
    <description>Created with Sketch (http://www.bohemiancoding.com/sketch)</description>
    <defs>
        <radialGradient cx="50%" cy="50%" fx="50%" fy="50%" r="33.998698%" id="radialGradient-1">
            <stop stop-color="#FFFFFF" offset="0%"></stop>
            <stop stop-color="#005A8A" offset="100%"></stop>
        </radialGradient>
    </defs>
    <g id="Page-1" stroke="none" stroke-width="1" fill="none" fill-rule="evenodd" sketch:type="MSPage">
        <circle id="Oval-1" fill="url(#radialGradient-1)" sketch:type="MSShapeGroup" cx="300" cy="300" r="300"></circle>
        <path d="M301.862076,304.180316 C308.634734,298.693709 322.701032,307.122403 322.701028,315.153519 C322.701025,323.184634 321.761121,333.807963 305.508892,333.807964 C289.256663,333.807967 273.921438,330.458279 270.082678,315.153519 C266.243919,299.848758 270.466341,281.452607 285.71189,271.260695 C300.957439,261.068784 323.843136,261.006874 339.786482,271.260696 C355.729829,281.514518 360.416509,295.606094 360.41651,315.153525 C360.416512,334.700956 354.203328,351.88735 327.015513,362.222222 C299.827698,372.557097 278.400801,367.298398 259.663203,357.037037 C240.925606,346.775675 237.618725,323.383427 237.618726,304.180314 C237.618727,284.977202 248.201783,262.83201 262.789047,251.858804 C277.376311,240.885599 301.862076,242.730364 301.862076,249.314287 C301.862076,255.898209 280.158989,258.70548 274.949252,264.740741 C269.739514,270.776001 259.663203,282.233904 259.663204,304.180314 C259.663204,326.126723 265.914889,329.219897 270.082679,333.807964 C274.250469,338.396032 300.009813,346.733767 312.802524,343.485063 C325.595236,340.236359 332.716341,331.044096 333.120502,315.153525 C333.524664,299.262953 331.320613,297.136889 320.096157,289.167699 C315.435288,285.858555 307.979454,284.976207 301.862076,289.167699 C291.400688,296.33561 290.526952,307.224745 291.442602,315.153521 C292.358251,323.082297 305.508892,320.150728 305.508892,315.153521 C305.508893,310.156314 295.089418,309.666922 301.862076,304.180316 Z M336.248987,205.932204 C325.922122,222.492469 321.949492,234.245758 321.275033,239.052735 C320.600574,243.859712 326.464169,256.070026 336.248987,244 C346.033804,231.929974 354.36535,221.074572 358.451745,211.851852 C363.098835,201.363684 361.736325,185.128746 358.451745,183.851852 C355.167166,182.574958 346.575851,189.371939 336.248987,205.932204 Z M391.507096,243.102091 C373.14697,250.243321 362.918435,257.347547 359.528395,260.829491 C356.138355,264.311435 352.384518,279.771975 367.651418,275.936615 C373.239231,274.532842 388.064314,267.568814 393.665805,264.407194 C403.713367,258.736102 422.938995,243.917709 423.027747,238.695662 C423.116498,233.473614 409.867221,235.960859 391.507096,243.102091 Z M413.304278,301.19294 C394.363353,296.488912 381.18644,301.479518 376.406314,302.323507 C371.626187,303.167496 366.016561,310.443624 380.519513,316.019695 C395.022465,321.595767 402.653571,320.060004 412.687665,321.09642 C424.098535,322.275042 440.393709,320.622651 440.393709,320.622651 C440.393709,320.622651 432.245202,305.896969 413.304278,301.19294 Z M402.035537,366.798561 C389.476966,351.859726 379.526534,344.449564 375.163247,342.322678 C370.799959,340.195792 357.166145,341.931245 365.621747,354.967003 C374.077348,368.002761 379.597199,371.504933 387.105761,378.241304 C395.644572,385.90197 416.17417,394.737843 416.17417,394.737843 C416.17417,394.737843 414.594108,381.737396 402.035537,366.798561 Z M338.073635,408.635025 C336.694364,389.16751 332.999879,377.323847 330.720058,373.038483 C328.440237,368.75312 316.06783,361.699707 315.24633,377.215935 C314.424829,392.732162 316.47369,399.842989 318.588705,409.70625 C320.993922,420.922846 333.089731,439.548859 333.089731,439.548859 C333.089731,439.548859 339.452906,428.102539 338.073635,408.635025 Z M267.41572,410.962963 C277.742584,394.402698 281.825928,387.111111 281.825928,378.814815 C281.825927,370.518519 277.200538,360.501752 267.41572,372.571778 C257.630902,384.641804 252.511325,390.991198 248.42493,400.213918 C243.777841,410.702086 232.706814,432.740741 240.565872,432.740741 C248.42493,432.740741 257.088855,427.523228 267.41572,410.962963 Z M208.783445,377.530814 C227.020593,370.214102 232.790237,366.081014 236.181459,362.574927 C238.219073,360.468296 250.731461,353.815896 240.336493,346.263506 C229.941526,338.711116 207.729711,351.497491 198.936494,356.562867 C191.660218,360.754401 167.814613,374.329717 173.356864,378.356398 C178.899116,382.38308 190.546297,384.847527 208.783445,377.530814 Z M183.744235,304.97186 C202.685159,309.675888 218.634122,307.870465 223.414248,307.026476 C228.194374,306.182487 244.423478,303.769308 230.336667,294.373029 C216.249858,284.976749 202.319791,285.181318 192.285696,284.144902 C180.874827,282.96628 159.426852,288.727332 159.426852,288.727332 C159.426852,288.727332 164.80331,300.267832 183.744235,304.97186 Z M208.762512,222.914235 C221.070599,238.144791 236.769562,242.512157 241.084809,244.647802 C245.400056,246.783447 255.423494,239.228031 247.174435,225.90586 C238.925376,212.583688 237.128072,212.469783 229.741331,205.625354 C225.395242,201.598342 205.128963,188.769905 200.938072,191.170241 C196.74718,193.570577 196.454424,207.68368 208.762512,222.914235 Z M275.666614,191.364975 C277.045885,210.83249 280.74037,222.676153 283.020191,226.961517 C285.300012,231.24688 298.300411,239.16465 299.121911,223.648422 C299.943412,208.132195 296.332257,200.835821 294.217242,190.97256 C291.812026,179.755964 280.650518,160.451141 280.650518,160.451141 C280.650518,160.451141 274.287343,171.897461 275.666614,191.364975 Z" id="Sun" stroke="#908500" stroke-width="2" fill="#E5C700" sketch:type="MSShapeGroup"></path>
    </g>
</svg>