<?xml version="1.0" encoding="UTF-8" standalone="no"?>
<svg width="300px" height="300px" viewBox="0 0 300 300" version="1.1" xmlns="http://www.w3.org/2000/svg" xmlns:xlink="http://www.w3.org/1999/xlink" xmlns:sketch="http://www.bohemiancoding.com/sketch/ns">
    <title>potatoblog</title>
    <description>Created with Sketch (http://www.bohemiancoding.com/sketch)</description>
    <defs>
        <linearGradient x1="46.6427952%" y1="0%" x2="46.6427951%" y2="100%" id="linearGradient-1">
            <stop stop-color="#8D3C0C" offset="0%"></stop>
            <stop stop-color="#E9B332" offset="100%"></stop>
        </linearGradient>
        <linearGradient x1="47.1864164%" y1="100%" x2="47.1864149%" y2="0%" id="linearGradient-2">
            <stop stop-color="#8D3C0C" offset="0%"></stop>
            <stop stop-color="#E9B332" offset="100%"></stop>
        </linearGradient>
        <radialGradient cx="50%" cy="50%" fx="50%" fy="50%" r="137.814403%" id="radialGradient-3">
            <stop stop-color="#FFFFFF" offset="0%"></stop>
            <stop stop-color="#000000" offset="100%"></stop>
        </radialGradient>
    </defs>
    <g id="Page-1" stroke="none" stroke-width="1" fill="none" fill-rule="evenodd" sketch:type="MSPage">
        <g id="potato" sketch:type="MSLayerGroup" transform="translate(-2.000000, 25.000000)">
            <path d="M170,226 C225.228478,226 271,206 271,167 C270.999999,144.643122 253.145125,111.259638 222,77 C190.854875,42.7403625 176.904043,0 142,0 C113.463483,0 114.000001,32.0000004 102,66 C90,100 70.000002,137.638843 70,167 C69.9999989,206 114.771522,226 170,226 Z" id="body" stroke="#000000" stroke-width="5" fill="#B58458" sketch:type="MSShapeGroup"></path>
            <path d="M167.149254,166 C205.891619,166 238,152.017699 238,124.752212 C237.999999,109.122182 225.474938,85.7832871 203.626866,61.8318584 C181.778793,37.8804304 171.992388,8 147.507463,8 C127.489309,8 127.865672,30.3716817 119.447761,54.1415929 C111.029851,77.9115044 97.0000014,104.225386 97,124.752212 C96.9999992,152.017699 128.406889,166 167.149254,166 Z" id="Oval-2" fill="#D6B79C" sketch:type="MSShapeGroup"></path>
            <circle id="small-eye" fill="#000000" sketch:type="MSShapeGroup" cx="149" cy="76" r="10"></circle>
            <circle id="big-eye" fill="#000000" sketch:type="MSShapeGroup" cx="180" cy="69" r="15"></circle>
            <g id="pencil" transform="translate(154.250000, 150.066987) rotate(30.000000) translate(-154.250000, -150.066987) translate(-14.750000, 135.066987)" sketch:type="MSShapeGroup">
                <rect id="Rectangle-1" stroke="#000000" stroke-width="3" fill="url(#linearGradient-1)" x="28.6915114" y="-3.55271368e-14" width="251.925466" height="10.5"></rect>
                <rect id="gomma" stroke="#000000" stroke-width="3" fill="#D04A01" x="-7.10542736e-15" y="-1.42108547e-14" width="28.6915114" height="30.1" rx="8"></rect>
                <rect id="Rectangle-1" stroke="#000000" stroke-width="3" fill="url(#linearGradient-2)" x="28.6915114" y="19.6" width="251.925466" height="10.5"></rect>
                <rect id="Rectangle-1" stroke="#979797" stroke-width="0.7" fill="#F8C879" x="28.6915114" y="9.8" width="251.925466" height="10.5"></rect>
                <g id="punta" transform="translate(280.616977, -0.000000)">
                    <path d="M0,30.1 L0,1.95399252e-14 L57.3830228,15.7666667 L0,30.1 Z" id="main" stroke="#000000" stroke-width="3" fill="#EFE3D0"></path>
                    <path d="M34.4298137,21.5 L34.4298137,9.31666667 L57.3830228,15.7666667 L34.4298137,21.5 Z" id="tip" stroke="#979797" stroke-width="0.7" fill="#000000"></path>
                </g>
                <rect id="Rectangle-5" stroke="#000000" stroke-width="3" fill="url(#radialGradient-3)" x="21.6935818" y="7.10542736e-15" width="13.9958592" height="30.1"></rect>
            </g>
            <path d="M94,168.000002 C106.70255,168.000002 88.2040234,136.999998 88.2040234,118.426951 C88.2040229,99.853903 124,86.0000001 112,72 C100,57.9999999 59.9999995,94.1600268 60,112.999998 C60.0000008,131.83997 81.2974501,168.000002 94,168.000002 Z" id="arm" stroke="#000000" stroke-width="5" fill="#976C46" sketch:type="MSShapeGroup"></path>
        </g>
    </g>
</svg>