<?xml version="1.0" encoding="UTF-8" standalone="no"?>
<svg width="330px" height="330px" viewBox="0 0 330 330" version="1.1" xmlns="http://www.w3.org/2000/svg" xmlns:xlink="http://www.w3.org/1999/xlink" xmlns:sketch="http://www.bohemiancoding.com/sketch/ns">
    <title>lux-icon</title>
    <description>Created with Sketch (http://www.bohemiancoding.com/sketch)</description>
    <defs></defs>
    <g id="Page-1" stroke="none" stroke-width="1" fill="none" fill-rule="evenodd" sketch:type="MSPage">
        <circle id="Oval-1" fill="#005A8A" sketch:type="MSShapeGroup" cx="165" cy="165" r="160"></circle>
        <path d="M166.862076,169.180316 C173.634734,163.693709 187.701032,172.122403 187.701028,180.153519 C187.701025,188.184634 186.761121,198.807963 170.508892,198.807964 C154.256663,198.807967 138.921438,195.458279 135.082678,180.153519 C131.243919,164.848758 135.466341,146.452607 150.71189,136.260695 C165.957439,126.068784 188.843136,126.006874 204.786482,136.260696 C220.729829,146.514518 225.416509,160.606094 225.41651,180.153525 C225.416512,199.700956 219.203328,216.88735 192.015513,227.222222 C164.827698,237.557097 143.400801,232.298398 124.663203,222.037037 C105.925606,211.775675 102.618725,188.383427 102.618726,169.180314 C102.618727,149.977202 113.201783,127.83201 127.789047,116.858804 C142.376311,105.885599 166.862076,107.730364 166.862076,114.314287 C166.862076,120.898209 145.158989,123.70548 139.949252,129.740741 C134.739514,135.776001 124.663203,147.233904 124.663204,169.180314 C124.663204,191.126723 130.914889,194.219897 135.082679,198.807964 C139.250469,203.396032 165.009813,211.733767 177.802524,208.485063 C190.595236,205.236359 197.716341,196.044096 198.120502,180.153525 C198.524664,164.262953 196.320613,162.136889 185.096157,154.167699 C180.435288,150.858555 172.979454,149.976207 166.862076,154.167699 C156.400688,161.33561 155.526952,172.224745 156.442602,180.153521 C157.358251,188.082297 170.508892,185.150728 170.508892,180.153521 C170.508893,175.156314 160.089418,174.666922 166.862076,169.180316 Z M201.248987,70.9322041 C190.922122,87.4924689 186.949492,99.2457577 186.275033,104.052735 C185.600574,108.859712 191.464169,121.070026 201.248987,109 C211.033804,96.9299744 219.36535,86.0745725 223.451745,76.851852 C228.098835,66.3636843 226.736325,50.1287457 223.451745,48.8518519 C220.167166,47.5749576 211.575851,54.3719389 201.248987,70.9322041 Z M256.507096,108.102091 C238.14697,115.243321 227.918435,122.347547 224.528395,125.829491 C221.138355,129.311435 217.384518,144.771975 232.651418,140.936615 C238.239231,139.532842 253.064314,132.568814 258.665805,129.407194 C268.713367,123.736102 287.938995,108.917709 288.027747,103.695662 C288.116498,98.4736145 274.867221,100.960859 256.507096,108.102091 Z M278.304278,166.19294 C259.363353,161.488912 246.18644,166.479518 241.406314,167.323507 C236.626187,168.167496 231.016561,175.443624 245.519513,181.019695 C260.022465,186.595767 267.653571,185.060004 277.687665,186.09642 C289.098535,187.275042 305.393709,185.622651 305.393709,185.622651 C305.393709,185.622651 297.245202,170.896969 278.304278,166.19294 Z M267.035537,231.798561 C254.476966,216.859726 244.526534,209.449564 240.163247,207.322678 C235.799959,205.195792 222.166145,206.931245 230.621747,219.967003 C239.077348,233.002761 244.597199,236.504933 252.105761,243.241304 C260.644572,250.90197 281.17417,259.737843 281.17417,259.737843 C281.17417,259.737843 279.594108,246.737396 267.035537,231.798561 Z M203.073635,273.635025 C201.694364,254.16751 197.999879,242.323847 195.720058,238.038483 C193.440237,233.75312 181.06783,226.699707 180.24633,242.215935 C179.424829,257.732162 181.47369,264.842989 183.588705,274.70625 C185.993922,285.922846 198.089731,304.548859 198.089731,304.548859 C198.089731,304.548859 204.452906,293.102539 203.073635,273.635025 Z M132.41572,275.962963 C142.742584,259.402698 146.825928,252.111111 146.825928,243.814815 C146.825927,235.518519 142.200538,225.501752 132.41572,237.571778 C122.630902,249.641804 117.511325,255.991198 113.42493,265.213918 C108.777841,275.702086 97.706814,297.740741 105.565872,297.740741 C113.42493,297.740741 122.088855,292.523228 132.41572,275.962963 Z M73.783445,242.530814 C92.0205929,235.214102 97.7902368,231.081014 101.181459,227.574927 C103.219073,225.468296 115.731461,218.815896 105.336493,211.263506 C94.9415264,203.711116 72.7297107,216.497491 63.9364942,221.562867 C56.6602179,225.754401 32.8146127,239.329717 38.3568643,243.356398 C43.899116,247.38308 55.5462973,249.847527 73.783445,242.530814 Z M48.7442348,169.97186 C67.6851592,174.675888 83.6341215,172.870465 88.4142477,172.026476 C93.1943738,171.182487 109.423478,168.769308 95.3366674,159.373029 C81.2498581,149.976749 67.3197905,150.181318 57.2856965,149.144902 C45.8748267,147.96628 24.4268524,153.727332 24.4268524,153.727332 C24.4268524,153.727332 29.8033102,165.267832 48.7442348,169.97186 Z M73.7625117,87.9142351 C86.0705994,103.144791 101.769562,107.512157 106.084809,109.647802 C110.400056,111.783447 120.423494,104.228031 112.174435,90.9058596 C103.925376,77.583688 102.128072,77.4697827 94.741331,70.6253537 C90.3952421,66.5983416 70.128963,53.7699046 65.9380717,56.1702406 C61.7471804,58.5705767 61.4544236,72.68368 73.7625117,87.9142351 Z M140.666614,56.3649755 C142.045885,75.8324898 145.74037,87.6761535 148.020191,91.9615167 C150.300012,96.2468799 163.300411,104.16465 164.121911,88.6484223 C164.943412,73.1321947 161.332257,65.8358205 159.217242,55.9725599 C156.812026,44.7559636 145.650518,25.4511411 145.650518,25.4511411 C145.650518,25.4511411 139.287343,36.8974611 140.666614,56.3649755 Z" id="Sun" stroke="#908500" stroke-width="2" fill="#E5C700" sketch:type="MSShapeGroup"></path>
    </g>
</svg>