<?xml version="1.0" encoding="UTF-8" standalone="no"?>
<svg width="300px" height="300px" viewBox="0 0 300 300" version="1.1" xmlns="http://www.w3.org/2000/svg" xmlns:xlink="http://www.w3.org/1999/xlink" xmlns:sketch="http://www.bohemiancoding.com/sketch/ns">
    <title>lux.svg</title>
    <description>Created with Sketch (http://www.bohemiancoding.com/sketch)</description>
    <defs></defs>
    <g id="Page-1" stroke="none" stroke-width="1" fill="none" fill-rule="evenodd" sketch:type="MSPage">
        <g id="Sun" sketch:type="MSLayerGroup" transform="translate(6.000000, 12.000000)" stroke="#D6CA3A" stroke-width="2" fill="#FFE851">
            <path d="M143.39547,139.031019 C150.289587,133.740363 164.608145,141.868032 164.608141,149.612322 C164.608138,157.356611 163.651378,167.600536 147.107687,167.600537 C130.563996,167.600539 114.953753,164.370483 111.046151,149.612322 C107.138549,134.85416 111.436694,117.115014 126.955652,107.287099 C142.474609,97.4591847 165.770731,97.3994854 182,107.2871 C198.229269,117.174714 202.999999,130.763019 203,149.612328 C203.000002,168.461636 196.675393,185.03423 169,195 C141.324608,204.965772 119.513448,199.894883 100.439816,190 C81.3661851,180.105115 77.9999994,157.548304 78.0000002,139.031017 C78.0000014,120.51373 88.7728509,99.1594386 103.621718,88.5781324 C118.470585,77.9968277 143.39547,79.7757085 143.39547,86.1244909 C143.39547,92.4732732 121.303167,95.1802839 116,101 C110.696833,106.819716 100.439816,117.868408 100.439817,139.031017 C100.439817,160.193626 106.803618,163.176329 111.046151,167.600537 C115.288685,172.024745 141.509989,180.064704 154.532121,176.932025 C167.554253,173.799346 174.803065,164.935379 175.214474,149.612328 C175.625884,134.289277 173.382306,132.239143 161.956554,124.554567 C157.2121,121.363607 149.622555,120.512771 143.39547,124.554567 C132.746471,131.466481 131.857066,141.966718 132.789136,149.612324 C133.721207,157.25793 147.107687,154.431059 147.107687,149.612324 C147.107687,144.793589 136.501353,144.321675 143.39547,139.031019 Z" id="Path-1" sketch:type="MSShapeGroup"></path>
            <path d="M178.399064,44.2917682 C167.887001,60.260595 163.843127,71.5941235 163.156573,76.2294228 C162.470018,80.8647221 163.708341,92.6590246 173.668636,81.0200708 C183.628932,69.3811174 191.84032,53.1851048 196,44.2917673 C200.730428,34.178177 204.343485,24.2312905 201,23 C197.656515,21.7687091 188.911127,28.3229411 178.399064,44.2917682 Z" id="Path-2" sketch:type="MSShapeGroup"></path>
            <path d="M227.890073,80.2692949 C217.042826,96.2467261 212.870011,107.586361 212.161565,112.224158 C211.453119,116.861955 212.730926,128.662613 223.008812,117.017388 C233.286699,105.372163 238.634218,96.5339104 242.926532,87.635781 C247.807793,77.5167412 254.263055,63.0901997 251.211655,58.9660543 C248.160255,54.841909 238.73732,64.2918635 227.890073,80.2692949 Z" id="Path-2" sketch:type="MSShapeGroup" transform="translate(231.500000, 90.000000) rotate(-324.000000) translate(-231.500000, -90.000000) "></path>
            <path d="M243.399064,137.291768 C232.887001,153.260595 228.843127,164.594123 228.156573,169.229423 C227.470018,173.864722 228.708341,185.659025 238.668636,174.020071 C248.628932,162.381117 250.802653,150.44346 254.962333,141.550123 C259.692761,131.436533 266,116 266,116 C266,116 253.911127,121.322941 243.399064,137.291768 Z" id="Path-2" sketch:type="MSShapeGroup" transform="translate(247.000000, 147.500000) rotate(-288.000000) translate(-247.000000, -147.500000) "></path>
            <path d="M230.399064,189.291768 C219.887001,205.260595 215.843127,216.594123 215.156573,221.229423 C214.470018,225.864722 215.708341,237.659025 225.668636,226.020071 C235.628932,214.381117 237.802653,202.44346 241.962333,193.550123 C246.692761,183.436533 253,168 253,168 C253,168 240.911127,173.322941 230.399064,189.291768 Z" id="Path-2" sketch:type="MSShapeGroup" transform="translate(234.000000, 199.500000) rotate(-252.000000) translate(-234.000000, -199.500000) "></path>
            <path d="M167.399064,223.291768 C156.887001,239.260595 152.843127,250.594123 152.156573,255.229423 C151.470018,259.864722 152.708341,271.659025 162.668636,260.020071 C172.628932,248.381117 174.802653,236.44346 178.962333,227.550123 C183.692761,217.436533 190,202 190,202 C190,202 177.911127,207.322941 167.399064,223.291768 Z" id="Path-2" sketch:type="MSShapeGroup" transform="translate(171.000000, 233.500000) rotate(-216.000000) translate(-171.000000, -233.500000) "></path>
            <path d="M93.3990642,221.291768 C82.887001,237.260595 78.8431273,248.594123 78.1565726,253.229423 C77.4700181,257.864722 78.7083406,269.659025 88.6686359,258.020071 C98.6289316,246.381117 103.84032,240.320712 108,231.427374 C112.730428,221.313784 124,200 116,200 C108,200 103.911127,205.322941 93.3990642,221.291768 Z" id="Path-2" sketch:type="MSShapeGroup" transform="translate(98.500000, 231.500000) rotate(-180.000000) translate(-98.500000, -231.500000) "></path>
            <path d="M40.2649057,184.392833 C29.6239288,200.437459 27.880563,210.492909 27.1855888,215.150211 C26.768014,217.948549 27.1855888,226 27.1855888,226 C27.1855888,226 47.7592879,197.606952 51.9699794,188.671401 C55.4542738,181.277344 70.1164622,163 63.143006,163 C56.1695499,163 50.9058822,168.348207 40.2649057,184.392833 Z" id="Path-2" sketch:type="MSShapeGroup" transform="translate(46.000000, 194.500000) rotate(-144.000000) translate(-46.000000, -194.500000) "></path>
            <path d="M32.3990642,121.291768 C21.887001,137.260595 17.8431273,148.594123 17.1565726,153.229423 C16.4700181,157.864722 17.7083406,169.659025 27.6686359,158.020071 C37.6289316,146.381117 39.8026531,134.44346 43.9623328,125.550123 C48.6927613,115.436533 55,100 55,100 C55,100 42.911127,105.322941 32.3990642,121.291768 Z" id="Path-2" sketch:type="MSShapeGroup" transform="translate(36.000000, 131.500000) rotate(-108.000000) translate(-36.000000, -131.500000) "></path>
            <path d="M60.1245464,49.4720818 C49.2512733,65.2981198 46.8720984,74.7229369 46.1619527,79.3167886 C45.4518071,83.9106403 46.7326802,95.5994815 57.0352259,84.0646 C67.3377719,72.5297189 70.3630629,66.271944 74.6656753,57.4581282 C77.1971754,52.2724009 88.9478127,29.6915004 85.3057358,26.5633288 C81.6636588,23.4351572 70.997819,33.6460436 60.1245464,49.4720818 Z" id="Path-2" sketch:type="MSShapeGroup" transform="translate(65.500000, 57.500000) rotate(-72.000000) translate(-65.500000, -57.500000) "></path>
            <path d="M122.399064,26.2917682 C111.887001,42.260595 107.843127,53.5941235 107.156573,58.2294228 C106.470018,62.8647221 107.708341,74.6590246 117.668636,63.0200708 C127.628932,51.3811174 129.802653,39.4434605 133.962333,30.5501229 C138.692761,20.4365326 145,5 145,5 C145,5 132.911127,10.3229411 122.399064,26.2917682 Z" id="Path-2" sketch:type="MSShapeGroup" transform="translate(126.000000, 36.500000) rotate(-36.000000) translate(-126.000000, -36.500000) "></path>
        </g>
    </g>
</svg>