<?xml version="1.0" encoding="UTF-8" standalone="no"?>
<svg width="300px" height="300px" viewBox="0 0 300 300" version="1.1" xmlns="http://www.w3.org/2000/svg" xmlns:xlink="http://www.w3.org/1999/xlink" xmlns:sketch="http://www.bohemiancoding.com/sketch/ns">
    <title>lux.svg</title>
    <description>Created with Sketch (http://www.bohemiancoding.com/sketch)</description>
    <defs></defs>
    <g id="Page-1" stroke="none" stroke-width="1" fill="none" fill-rule="evenodd" sketch:type="MSPage">
        <g id="Sun" sketch:type="MSLayerGroup" transform="translate(6.000000, 12.000000)" stroke="#908500" stroke-width="2" fill="#E6C700">
            <path d="M143.39547,139.031019 C150.289587,133.740363 164.608145,141.868032 164.608141,149.612322 C164.608138,157.356611 163.651378,167.600536 147.107687,167.600537 C130.563996,167.600539 114.953753,164.370483 111.046151,149.612322 C107.138549,134.85416 111.436694,117.115014 126.955652,107.287099 C142.474609,97.4591847 165.770731,97.3994854 182,107.2871 C198.229269,117.174714 202.999999,130.763019 203,149.612328 C203.000002,168.461636 196.675393,185.03423 169,195 C141.324608,204.965772 119.513448,199.894883 100.439816,190 C81.3661851,180.105115 77.9999994,157.548304 78.0000002,139.031017 C78.0000014,120.51373 88.7728509,99.1594386 103.621718,88.5781324 C118.470585,77.9968277 143.39547,79.7757085 143.39547,86.1244909 C143.39547,92.4732732 121.303167,95.1802839 116,101 C110.696833,106.819716 100.439816,117.868408 100.439817,139.031017 C100.439817,160.193626 106.803618,163.176329 111.046151,167.600537 C115.288685,172.024745 141.509989,180.064704 154.532121,176.932025 C167.554253,173.799346 174.803065,164.935379 175.214474,149.612328 C175.625884,134.289277 173.382306,132.239143 161.956554,124.554567 C157.2121,121.363607 149.622555,120.512771 143.39547,124.554567 C132.746471,131.466481 131.857066,141.966718 132.789136,149.612324 C133.721207,157.25793 147.107687,154.431059 147.107687,149.612324 C147.107687,144.793589 136.501353,144.321675 143.39547,139.031019 Z" id="Path-1" sketch:type="MSShapeGroup"></path>
            <path d="M178.399064,44.2917682 C167.887001,60.260595 163.843127,71.5941235 163.156573,76.2294228 C162.470018,80.8647221 168.438769,92.638954 178.399064,81.0000002 C188.35936,69.3610468 196.84032,58.8933377 201,50.0000002 C205.730428,39.8864099 204.343485,24.2312905 201,23 C197.656515,21.7687091 188.911127,28.3229411 178.399064,44.2917682 Z" id="Path-2" sketch:type="MSShapeGroup"></path>
            <path d="M227.206797,80.3722046 C216.35955,96.3496357 212.186734,107.689271 211.478288,112.327068 C210.769842,116.964865 216.928911,131.153645 227.206797,119.50842 C230.96859,115.24617 239.010664,101.410616 241.731955,95.7692762 C246.613216,85.6502365 253.579778,63.1931094 250.528378,59.0689639 C247.476978,54.9448186 238.054043,64.3947731 227.206797,80.3722046 Z" id="Path-2" sketch:type="MSShapeGroup" transform="translate(231.316723, 91.102910) rotate(-324.000000) translate(-231.316723, -91.102910) "></path>
            <path d="M240.095221,136.090248 C229.583158,152.059075 230.269712,165.630598 229.583157,170.265897 C228.896603,174.901197 234.176155,182.213875 244.13645,170.574921 C254.096746,158.935968 255.010386,151.479928 259.170066,142.58659 C263.900494,132.473 267.426585,117.036475 267.426585,117.036475 C267.426585,117.036475 250.607284,120.121421 240.095221,136.090248 Z" id="Path-2" sketch:type="MSShapeGroup" transform="translate(248.426585, 147.036475) rotate(-288.000000) translate(-248.426585, -147.036475) "></path>
            <path d="M230.399064,189.291768 C219.887001,205.260595 215.843127,216.594123 215.156573,221.229423 C214.470018,225.864722 220.438769,237.851028 230.399064,226.212074 C240.35936,214.573121 242.013539,208.467341 246.173218,199.574003 C250.903647,189.460413 253,168 253,168 C253,168 240.911127,173.322941 230.399064,189.291768 Z" id="Path-2" sketch:type="MSShapeGroup" transform="translate(234.000000, 199.500000) rotate(-252.000000) translate(-234.000000, -199.500000) "></path>
            <path d="M167.105172,222.38726 C156.593108,238.356087 152.549235,249.689615 151.86268,254.324914 C151.176125,258.960214 157.144876,271.47534 167.105171,259.836386 C177.065467,248.197432 179.632773,241.488829 183.792453,232.595492 C188.522881,222.481901 189.706107,201.095492 189.706107,201.095492 C189.706107,201.095492 177.617234,206.418433 167.105172,222.38726 Z" id="Path-2" sketch:type="MSShapeGroup" transform="translate(170.706107, 233.095492) rotate(-216.000000) translate(-170.706107, -233.095492) "></path>
            <path d="M92.6686363,221 C82.1565732,236.968827 77.9999998,244 78,252 C78.0000004,260 82.7083406,269.659025 92.6686359,258.020071 C102.628932,246.381117 107.840321,240.258488 112.000001,231.36515 C116.730429,221.25156 128,200 120,200 C112,200 103.180699,205.031173 92.6686363,221 Z" id="Path-2" sketch:type="MSShapeGroup" transform="translate(100.500000, 231.500000) rotate(-180.000000) translate(-100.500000, -231.500000) "></path>
            <path d="M41.6983452,186.074734 C31.0573683,202.119359 28.7788544,208.613872 28.0838803,213.271174 C27.6663054,216.069511 21.3423404,228.351138 34.4216568,228.351141 C47.5009732,228.351145 58.1425468,205.786692 62.3532383,196.851141 C65.8375327,189.457085 77.3525302,165.351141 70.379074,165.351141 C63.4056178,165.351141 52.3393217,170.030108 41.6983452,186.074734 Z" id="Path-2" sketch:type="MSShapeGroup" transform="translate(49.236068, 196.851141) rotate(-144.000000) translate(-49.236068, -196.851141) "></path>
            <path d="M34.1808454,115.318172 C23.6687822,131.286999 20.3997488,146.451618 19.7131941,151.086917 C19.0266396,155.722216 16.2578604,171.324849 29.7856455,161.205883 C43.3134308,151.086918 47.4972111,138.250832 51.6568908,129.357494 C56.3873193,119.243904 57.5566215,97.8574943 57.5566215,97.8574943 C57.5566215,97.8574943 44.6929081,99.3493453 34.1808454,115.318172 Z" id="Path-2" sketch:type="MSShapeGroup" transform="translate(38.056622, 131.357494) rotate(-108.000000) translate(-38.056622, -131.357494) "></path>
            <path d="M55.2631496,43.7590893 C44.3898765,59.5851272 45.1000221,75.2838831 44.3898764,79.8777348 C43.6797308,84.4715866 54.1471836,91.4126157 64.4497293,79.8777342 C74.7522753,68.3428531 74.2971909,66.6606223 78.5998033,57.8468065 C81.1313033,52.6610792 87.1757365,30.2524467 83.5336595,27.124275 C79.8915825,23.9961034 66.1364223,27.933051 55.2631496,43.7590893 Z" id="Path-2" sketch:type="MSShapeGroup" transform="translate(64.227924, 56.560946) rotate(-72.000000) translate(-64.227924, -56.560946) "></path>
            <path d="M122.692957,26.1962767 C112.180894,42.1651035 108.13702,53.498632 107.450465,58.1339313 C106.763911,62.7692306 112.732661,76.3146034 122.692957,64.6756495 C132.653252,53.0366962 134.044987,45.297846 138.204667,36.4045085 C142.935095,26.2909182 145.293893,4.9045085 145.293893,4.9045085 C145.293893,4.9045085 133.20502,10.2274496 122.692957,26.1962767 Z" id="Path-2" sketch:type="MSShapeGroup" transform="translate(126.293893, 36.904508) rotate(-36.000000) translate(-126.293893, -36.904508) "></path>
        </g>
    </g>
</svg>